<?xml version="1.0" encoding="UTF-8" standalone="no"?>
<!DOCTYPE svg PUBLIC "-//W3C//DTD SVG 1.1//EN" "http://www.w3.org/Graphics/SVG/1.1/DTD/svg11.dtd">
<!-- Generated by graphviz version 2.40.1 (20161225.0304) -->
<!-- Title: bcpu Pages: 1 -->
<svg xmlns="http://www.w3.org/2000/svg" xmlns:xlink="http://www.w3.org/1999/xlink" width="221pt" height="383pt" viewBox="0.00 0.00 220.83 383.40"> <g id="graph0" class="graph" transform="scale(1 1) rotate(0) translate(4 379.4)"> <title>bcpu</title> <polygon fill="#ffffff" stroke="transparent" points="-4,4 -4,-379.4 216.8252,-379.4 216.8252,4 -4,4"/> <!-- reset --> <g id="node1" class="node"> <title>reset</title> <ellipse fill="none" stroke="#000000" cx="100.524" cy="-357.4" rx="29.0299" ry="18"/> <text text-anchor="middle" x="100.524" y="-353.2" font-family="Times,serif" font-size="14.00" fill="#000000">reset</text> </g> <!-- fetch --> <g id="node2" class="node"> <title>fetch</title> <ellipse fill="none" stroke="#000000" cx="100.524" cy="-268.6" rx="30.1746" ry="18"/> <text text-anchor="middle" x="100.524" y="-264.4" font-family="Times,serif" font-size="14.00" fill="#000000">fetch</text> </g> <!-- reset&#45;&gt;fetch --> <g id="edge1" class="edge"> <title>reset-&gt;fetch</title> <path fill="none" stroke="#000000" d="M87.8923,-341.0917C84.0734,-335.2132 80.3767,-328.3165 78.423,-321.4 76.3933,-314.2145 76.3933,-311.7855 78.423,-304.6 79.4397,-301.0006 80.9285,-297.4065 82.6608,-293.9586"/> <polygon fill="#000000" stroke="#000000" points="85.7066,-295.683 87.6586,-285.2695 79.6388,-292.1928 85.7066,-295.683"/> <text text-anchor="middle" x="90.5745" y="-308.8" font-family="Times,serif" font-size="14.00" fill="#000000">start</text> </g> <!-- fetch&#45;&gt;reset --> <g id="edge3" class="edge"> <title>fetch-&gt;reset</title> <path fill="none" stroke="#000000" d="M101.738,-286.9059C102.061,-292.5749 102.3642,-298.8434 102.524,-304.6 102.7312,-312.0638 102.7312,-313.9362 102.524,-321.4 102.4566,-323.8286 102.3636,-326.3483 102.2545,-328.8756"/> <polygon fill="#000000" stroke="#000000" points="98.7473,-328.9301 101.738,-339.0941 105.7384,-329.2835 98.7473,-328.9301"/> <text text-anchor="middle" x="147.5113" y="-308.8" font-family="Times,serif" font-size="14.00" fill="#000000">flag(RST) = '1'</text> </g> <!-- execute --> <g id="node3" class="node"> <title>execute</title> <ellipse fill="none" stroke="#000000" cx="40.524" cy="-179.8" rx="40.548" ry="18"/> <text text-anchor="middle" x="40.524" y="-175.6" font-family="Times,serif" font-size="14.00" fill="#000000">execute</text> </g> <!-- fetch&#45;&gt;execute --> <g id="edge2" class="edge"> <title>fetch-&gt;execute</title> <path fill="none" stroke="#000000" d="M88.9554,-251.4785C80.2133,-238.5401 68.0619,-220.5561 58.1179,-205.839"/> <polygon fill="#000000" stroke="#000000" points="60.7605,-203.4984 52.2618,-197.172 54.9603,-207.4174 60.7605,-203.4984"/> </g> <!-- halt --> <g id="node4" class="node"> <title>halt</title> <ellipse fill="none" stroke="#000000" cx="126.524" cy="-179.8" rx="27" ry="18"/> <text text-anchor="middle" x="126.524" y="-175.6" font-family="Times,serif" font-size="14.00" fill="#000000">halt</text> </g> <!-- fetch&#45;&gt;halt --> <g id="edge4" class="edge"> <title>fetch-&gt;halt</title> <path fill="none" stroke="#000000" d="M98.5561,-250.5758C98.024,-240.1678 98.3953,-226.9678 102.0094,-215.8 103.2826,-211.8657 105.1305,-207.9695 107.2496,-204.2746"/> <polygon fill="#000000" stroke="#000000" points="110.3764,-205.8869 112.9025,-195.5977 104.5112,-202.0659 110.3764,-205.8869"/> <text text-anchor="middle" x="147.2813" y="-220" font-family="Times,serif" font-size="14.00" fill="#000000">flag(HLT) = '1'</text> </g> <!-- advance --> <g id="node5" class="node"> <title>advance</title> <ellipse fill="none" stroke="#000000" cx="105.524" cy="-18" rx="42.8383" ry="18"/> <text text-anchor="middle" x="105.524" y="-13.8" font-family="Times,serif" font-size="14.00" fill="#000000">advance</text> </g> <!-- execute&#45;&gt;advance --> <g id="edge5" class="edge"> <title>execute-&gt;advance</title> <path fill="none" stroke="#000000" d="M30.4689,-162.0557C19.3768,-139.9152 5.0185,-101.5013 20.524,-73 29.8791,-55.8039 47.1827,-43.1602 63.7479,-34.3627"/> <polygon fill="#000000" stroke="#000000" points="65.4141,-37.4432 72.8196,-29.8663 62.3054,-31.1713 65.4141,-37.4432"/> </g> <!-- store --> <g id="node6" class="node"> <title>store</title> <ellipse fill="none" stroke="#000000" cx="59.524" cy="-91" rx="29.6127" ry="18"/> <text text-anchor="middle" x="59.524" y="-86.8" font-family="Times,serif" font-size="14.00" fill="#000000">store</text> </g> <!-- execute&#45;&gt;store --> <g id="edge6" class="edge"> <title>execute-&gt;store</title> <path fill="none" stroke="#000000" d="M38.6764,-161.4568C38.1478,-151.1801 38.3301,-138.2142 41.0978,-127 41.9053,-123.728 43.0578,-120.4174 44.3976,-117.1977"/> <polygon fill="#000000" stroke="#000000" points="47.6674,-118.4726 48.8206,-107.9407 41.3513,-115.4547 47.6674,-118.4726"/> <text text-anchor="middle" x="74.2371" y="-131.2" font-family="Times,serif" font-size="14.00" fill="#000000">op = 'store'</text> </g> <!-- load --> <g id="node7" class="node"> <title>load</title> <ellipse fill="none" stroke="#000000" cx="134.524" cy="-91" rx="27.8286" ry="18"/> <text text-anchor="middle" x="134.524" y="-86.8" font-family="Times,serif" font-size="14.00" fill="#000000">load</text> </g> <!-- execute&#45;&gt;load --> <g id="edge7" class="edge"> <title>execute-&gt;load</title> <path fill="none" stroke="#000000" d="M70.9253,-167.8309C83.0739,-161.9472 96.5235,-153.9188 106.524,-143.8 113.7013,-136.5378 119.4981,-127.0569 123.9152,-118.1361"/> <polygon fill="#000000" stroke="#000000" points="127.2044,-119.3585 128.1666,-108.8074 120.8347,-116.4555 127.2044,-119.3585"/> <text text-anchor="middle" x="149.6845" y="-131.2" font-family="Times,serif" font-size="14.00" fill="#000000">op = 'load'</text> </g> <!-- halt&#45;&gt;halt --> <g id="edge11" class="edge"> <title>halt-&gt;halt</title> <path fill="none" stroke="#000000" d="M151.0565,-187.9211C162.0318,-188.6945 171.524,-185.9875 171.524,-179.8 171.524,-175.6428 167.2391,-173.0567 161.0983,-172.0417"/> <polygon fill="#000000" stroke="#000000" points="161.1764,-168.5424 151.0565,-171.6789 160.9235,-175.5378 161.1764,-168.5424"/> </g> <!-- advance&#45;&gt;fetch --> <g id="edge10" class="edge"> <title>advance-&gt;fetch</title> <path fill="none" stroke="#000000" d="M130.3113,-32.8876C144.4279,-42.6064 161.2876,-56.5322 171.524,-73 209.2641,-133.7144 231.7145,-173.4792 191.524,-232.6 180.0268,-249.5125 159.2236,-258.4796 140.4071,-263.2341"/> <polygon fill="#000000" stroke="#000000" points="139.5333,-259.8425 130.5199,-265.411 141.0386,-266.6788 139.5333,-259.8425"/> </g> <!-- store&#45;&gt;advance --> <g id="edge8" class="edge"> <title>store-&gt;advance</title> <path fill="none" stroke="#000000" d="M70.1929,-74.0688C75.7607,-65.2331 82.6972,-54.2251 88.9461,-44.3083"/> <polygon fill="#000000" stroke="#000000" points="92.0625,-45.9278 94.4327,-35.6015 86.1403,-42.1959 92.0625,-45.9278"/> </g> <!-- load&#45;&gt;advance --> <g id="edge9" class="edge"> <title>load-&gt;advance</title> <path fill="none" stroke="#000000" d="M127.5039,-73.3287C124.1448,-64.873 120.0481,-54.5607 116.3058,-45.1404"/> <polygon fill="#000000" stroke="#000000" points="119.5247,-43.7629 112.5799,-35.7615 113.0192,-46.3473 119.5247,-43.7629"/> </g> </g> </svg>
