<?xml version="1.0" encoding="UTF-8" standalone="no"?> <!DOCTYPE svg PUBLIC "-//W3C//DTD SVG 1.1//EN" "http://www.w3.org/Graphics/SVG/1.1/DTD/svg11.dtd"> <!-- Generated by graphviz version 2.40.1 (20161225.0304) --> <!-- Title: bcpu Pages: 1 --> <svg width="320pt" height="529pt" viewBox="0.00 0.00 320.25 529.40" xmlns="http://www.w3.org/2000/svg" xmlns:xlink="http://www.w3.org/1999/xlink"> <g id="graph0" class="graph" transform="scale(1 1) rotate(0) translate(4 525.4)"> <title>bcpu</title> <polygon fill="#ffffff" stroke="transparent" points="-4,4 -4,-525.4 316.251,-525.4 316.251,4 -4,4"/> <!-- reset --> <g id="node1" class="node"> <title>reset</title> <ellipse fill="none" stroke="#000000" cx="120.251" cy="-503.4" rx="29.0299" ry="18"/> <text text-anchor="middle" x="120.251" y="-499.2" font-family="Times,serif" font-size="14.00" fill="#000000">reset</text> </g> <!-- fetch --> <g id="node2" class="node"> <title>fetch</title> <ellipse fill="none" stroke="#000000" cx="120.251" cy="-414.6" rx="30.1746" ry="18"/> <text text-anchor="middle" x="120.251" y="-410.4" font-family="Times,serif" font-size="14.00" fill="#000000">fetch</text> </g> <!-- reset&#45;&gt;fetch --> <g id="edge1" class="edge"> <title>reset&#45;&gt;fetch</title> <path fill="none" stroke="#000000" d="M107.6193,-487.0917C103.8004,-481.2132 100.1037,-474.3165 98.15,-467.4 96.1204,-460.2145 96.1204,-457.7855 98.15,-450.6 99.1667,-447.0006 100.6555,-443.4065 102.3879,-439.9586"/> <polygon fill="#000000" stroke="#000000" points="105.4337,-441.683 107.3857,-431.2695 99.3658,-438.1928 105.4337,-441.683"/> <text text-anchor="middle" x="110.3015" y="-454.8" font-family="Times,serif" font-size="14.00" fill="#000000">start</text> </g> <!-- fetch&#45;&gt;reset --> <g id="edge4" class="edge"> <title>fetch&#45;&gt;reset</title> <path fill="none" stroke="#000000" d="M121.465,-432.9059C121.788,-438.5749 122.0912,-444.8434 122.251,-450.6 122.4582,-458.0638 122.4582,-459.9362 122.251,-467.4 122.1836,-469.8286 122.0907,-472.3483 121.9815,-474.8756"/> <polygon fill="#000000" stroke="#000000" points="118.4744,-474.9301 121.465,-485.0941 125.4654,-475.2835 118.4744,-474.9301"/> <text text-anchor="middle" x="167.2383" y="-454.8" font-family="Times,serif" font-size="14.00" fill="#000000">flag(RST) = &#39;1&#39;</text> </g> <!-- execute --> <g id="node3" class="node"> <title>execute</title> <ellipse fill="none" stroke="#000000" cx="71.251" cy="-179.8" rx="40.548" ry="18"/> <text text-anchor="middle" x="71.251" y="-175.6" font-family="Times,serif" font-size="14.00" fill="#000000">execute</text> </g> <!-- fetch&#45;&gt;execute --> <g id="edge2" class="edge"> <title>fetch&#45;&gt;execute</title> <path fill="none" stroke="#000000" d="M90.6458,-410.5479C70.1267,-406.1649 43.7964,-397.1254 28.251,-378.6 -12.8949,-329.5665 -3.125,-294.3889 20.251,-234.8 25.0437,-222.5827 33.9669,-211.4608 43.0257,-202.4652"/> <polygon fill="#000000" stroke="#000000" points="45.6458,-204.8079 50.5792,-195.4317 40.8756,-199.6849 45.6458,-204.8079"/> </g> <!-- indirect --> <g id="node4" class="node"> <title>indirect</title> <ellipse fill="none" stroke="#000000" cx="71.251" cy="-325.8" rx="40.5654" ry="18"/> <text text-anchor="middle" x="71.251" y="-321.6" font-family="Times,serif" font-size="14.00" fill="#000000">indirect</text> </g> <!-- fetch&#45;&gt;indirect --> <g id="edge3" class="edge"> <title>fetch&#45;&gt;indirect</title> <path fill="none" stroke="#000000" d="M90.4095,-410.4855C71.0503,-406.0996 47.2251,-397.0823 34.9652,-378.6 28.3188,-368.5802 33.7558,-357.6076 42.2565,-348.2736"/> <polygon fill="#000000" stroke="#000000" points="44.8187,-350.6643 49.5583,-341.1887 39.9441,-345.6405 44.8187,-350.6643"/> <text text-anchor="middle" x="110.3939" y="-366" font-family="Times,serif" font-size="14.00" fill="#000000">flag(IND) = &#39;1&#39; and op &lt; 8</text> </g> <!-- halt --> <g id="node5" class="node"> <title>halt</title> <ellipse fill="none" stroke="#000000" cx="207.251" cy="-325.8" rx="27" ry="18"/> <text text-anchor="middle" x="207.251" y="-321.6" font-family="Times,serif" font-size="14.00" fill="#000000">halt</text> </g> <!-- fetch&#45;&gt;halt --> <g id="edge5" class="edge"> <title>fetch&#45;&gt;halt</title> <path fill="none" stroke="#000000" d="M146.0874,-405.1207C159.2525,-399.1972 174.6711,-390.4247 185.251,-378.6 191.6978,-371.3948 196.423,-362.0332 199.8037,-353.1976"/> <polygon fill="#000000" stroke="#000000" points="203.1654,-354.1828 203.0694,-343.5884 196.5377,-351.9303 203.1654,-354.1828"/> <text text-anchor="middle" x="241.0083" y="-366" font-family="Times,serif" font-size="14.00" fill="#000000">flag(HLT) = &#39;1&#39;</text> </g> <!-- advance --> <g id="node7" class="node"> <title>advance</title> <ellipse fill="none" stroke="#000000" cx="153.251" cy="-18" rx="42.8383" ry="18"/> <text text-anchor="middle" x="153.251" y="-13.8" font-family="Times,serif" font-size="14.00" fill="#000000">advance</text> </g> <!-- execute&#45;&gt;advance --> <g id="edge8" class="edge"> <title>execute&#45;&gt;advance</title> <path fill="none" stroke="#000000" d="M65.5694,-161.902C59.5997,-139.6029 53.0045,-101.0254 68.251,-73 77.6062,-55.8039 94.9097,-43.1602 111.4749,-34.3627"/> <polygon fill="#000000" stroke="#000000" points="113.1411,-37.4432 120.5466,-29.8663 110.0325,-31.1713 113.1411,-37.4432"/> </g> <!-- store --> <g id="node8" class="node"> <title>store</title> <ellipse fill="none" stroke="#000000" cx="107.251" cy="-91" rx="29.6127" ry="18"/> <text text-anchor="middle" x="107.251" y="-86.8" font-family="Times,serif" font-size="14.00" fill="#000000">store</text> </g> <!-- execute&#45;&gt;store --> <g id="edge9" class="edge"> <title>execute&#45;&gt;store</title> <path fill="none" stroke="#000000" d="M78.1491,-161.6574C82.0755,-151.4435 87.1327,-138.4735 91.8248,-127 93.0216,-124.0734 94.2926,-121.0223 95.5714,-117.9883"/> <polygon fill="#000000" stroke="#000000" points="98.9018,-119.1007 99.6013,-108.529 92.4619,-116.3571 98.9018,-119.1007"/> <text text-anchor="middle" x="124.9641" y="-131.2" font-family="Times,serif" font-size="14.00" fill="#000000">op = &#39;store&#39;</text> </g> <!-- load --> <g id="node9" class="node"> <title>load</title> <ellipse fill="none" stroke="#000000" cx="182.251" cy="-91" rx="27.8286" ry="18"/> <text text-anchor="middle" x="182.251" y="-86.8" font-family="Times,serif" font-size="14.00" fill="#000000">load</text> </g> <!-- execute&#45;&gt;load --> <g id="edge10" class="edge"> <title>execute&#45;&gt;load</title> <path fill="none" stroke="#000000" d="M107.24,-171.1959C124.0894,-165.6721 143.4402,-156.9927 157.251,-143.8 164.5219,-136.8545 169.9106,-127.3698 173.7846,-118.3542"/> <polygon fill="#000000" stroke="#000000" points="177.0982,-119.4881 177.411,-108.8979 170.5623,-116.9816 177.0982,-119.4881"/> <text text-anchor="middle" x="201.4115" y="-131.2" font-family="Times,serif" font-size="14.00" fill="#000000">op = &#39;load&#39;</text> </g> <!-- operand --> <g id="node6" class="node"> <title>operand</title> <ellipse fill="none" stroke="#000000" cx="71.251" cy="-252.8" rx="42.2777" ry="18"/> <text text-anchor="middle" x="71.251" y="-248.6" font-family="Times,serif" font-size="14.00" fill="#000000">operand</text> </g> <!-- indirect&#45;&gt;operand --> <g id="edge6" class="edge"> <title>indirect&#45;&gt;operand</title> <path fill="none" stroke="#000000" d="M71.251,-307.7551C71.251,-299.6828 71.251,-289.9764 71.251,-280.9817"/> <polygon fill="#000000" stroke="#000000" points="74.7511,-280.8903 71.251,-270.8904 67.7511,-280.8904 74.7511,-280.8903"/> </g> <!-- halt&#45;&gt;halt --> <g id="edge14" class="edge"> <title>halt&#45;&gt;halt</title> <path fill="none" stroke="#000000" d="M232.6945,-332.4907C243.2789,-332.9521 252.251,-330.7219 252.251,-325.8 252.251,-322.57 248.387,-320.4992 242.7392,-319.5876"/> <polygon fill="#000000" stroke="#000000" points="242.8497,-316.089 232.6945,-319.1093 242.5167,-323.0811 242.8497,-316.089"/> </g> <!-- operand&#45;&gt;execute --> <g id="edge7" class="edge"> <title>operand&#45;&gt;execute</title> <path fill="none" stroke="#000000" d="M71.251,-234.7551C71.251,-226.6828 71.251,-216.9764 71.251,-207.9817"/> <polygon fill="#000000" stroke="#000000" points="74.7511,-207.8903 71.251,-197.8904 67.7511,-207.8904 74.7511,-207.8903"/> </g> <!-- advance&#45;&gt;fetch --> <g id="edge13" class="edge"> <title>advance&#45;&gt;fetch</title> <path fill="none" stroke="#000000" d="M190.1285,-27.1002C237.0987,-39.7901 312.251,-64.2704 312.251,-91 312.251,-325.8 312.251,-325.8 312.251,-325.8 312.251,-351.2222 309.8198,-362.3719 290.251,-378.6 270.8485,-394.6902 204.3423,-405.1136 160.4931,-410.4125"/> <polygon fill="#000000" stroke="#000000" points="159.9466,-406.9524 150.4199,-411.5883 160.7583,-413.9052 159.9466,-406.9524"/> </g> <!-- store&#45;&gt;advance --> <g id="edge11" class="edge"> <title>store&#45;&gt;advance</title> <path fill="none" stroke="#000000" d="M117.92,-74.0688C123.4877,-65.2331 130.4242,-54.2251 136.6732,-44.3083"/> <polygon fill="#000000" stroke="#000000" points="139.7896,-45.9278 142.1597,-35.6015 133.8673,-42.1959 139.7896,-45.9278"/> </g> <!-- load&#45;&gt;advance --> <g id="edge12" class="edge"> <title>load&#45;&gt;advance</title> <path fill="none" stroke="#000000" d="M175.2309,-73.3287C171.8718,-64.873 167.7751,-54.5607 164.0328,-45.1404"/> <polygon fill="#000000" stroke="#000000" points="167.2517,-43.7629 160.307,-35.7615 160.7463,-46.3473 167.2517,-43.7629"/> </g> </g> </svg>
